<?xml version="1.0" encoding="iso-8859-1"?>
<!-- Generator: Adobe Illustrator 16.0.0, SVG Export Plug-In . SVG Version: 6.00 Build 0)  -->
<!DOCTYPE svg PUBLIC "-//W3C//DTD SVG 1.1//EN" "http://www.w3.org/Graphics/SVG/1.1/DTD/svg11.dtd">
<svg version="1.1" id="Capa_1" xmlns="http://www.w3.org/2000/svg" xmlns:xlink="http://www.w3.org/1999/xlink" x="0px" y="0px"
	 width="42.985px" height="42.985px" viewBox="0 0 42.985 42.985" style="enable-background:new 0 0 42.985 42.985;"
	 xml:space="preserve">
<g>
	<path d="M3.137,6.621c1.504,5.444,3.008,10.89,4.515,16.333c14.576,10.127,20.757-10.127,35.333,0
		c-1.505-5.444-3.009-10.889-4.515-16.333C23.895-3.505,17.713,16.747,3.137,6.621z M12.758,19.526
		c-0.021,0.203-0.094,0.35-0.219,0.438c-0.197,0.131-0.666,0.145-1.441-0.074c-0.129-0.037-0.258-0.076-0.389-0.117
		c-0.348-0.11-0.658-0.24-0.926-0.379c-0.266-0.135-0.512-0.318-0.736-0.541c-0.162-0.162-0.293-0.324-0.393-0.485
		c-0.098-0.161-0.174-0.314-0.227-0.461c-0.054-0.146-0.111-0.332-0.172-0.556c0.362,0.178,0.723,0.336,1.077,0.478
		c0.017,0.059,0.022,0.102,0.022,0.133c0.052,0.156,0.099,0.278,0.142,0.365c0.043,0.088,0.104,0.169,0.181,0.243
		c0.086,0.085,0.19,0.16,0.313,0.222c0.123,0.063,0.291,0.137,0.504,0.209c0.103,0.033,0.179,0.062,0.229,0.084
		c0.26,0.068,0.453,0.104,0.58,0.122c0.125,0.019,0.227,0.013,0.301-0.017c0.129-0.058,0.148-0.25,0.061-0.573
		c-0.064-0.229-0.156-0.399-0.283-0.521c-0.045-0.037-0.1-0.074-0.16-0.104c-0.061-0.033-0.121-0.06-0.18-0.081
		c-0.061-0.021-0.135-0.046-0.223-0.071c-0.09-0.027-0.189-0.06-0.303-0.098c-0.193-0.062-0.377-0.124-0.553-0.188
		c-0.173-0.064-0.341-0.136-0.502-0.211c-0.162-0.076-0.328-0.168-0.496-0.275s-0.316-0.223-0.441-0.342
		c-0.35-0.324-0.611-0.768-0.777-1.308c-0.154-0.556-0.115-0.868,0.109-0.962c0.24-0.072,0.775,0.071,1.57,0.317
		c0.479,0.148,0.817,0.234,1.024,0.297c0.336,0.111,0.603,0.238,0.804,0.396c0.211,0.161,0.364,0.338,0.469,0.536
		c0.102,0.196,0.19,0.441,0.272,0.733c-0.33-0.04-0.666-0.097-1.004-0.166c-0.021-0.064-0.037-0.133-0.056-0.199
		c-0.053-0.187-0.12-0.318-0.211-0.404c-0.106-0.105-0.33-0.195-0.676-0.289c-0.141-0.039-0.281-0.08-0.424-0.123
		c-0.412-0.129-0.674-0.188-0.771-0.146c-0.055,0.021-0.086,0.06-0.096,0.12c-0.008,0.063,0.008,0.165,0.047,0.311
		c0.058,0.168,0.104,0.295,0.146,0.375c0.043,0.081,0.115,0.161,0.215,0.236c0.082,0.062,0.178,0.12,0.289,0.177
		c0.109,0.058,0.238,0.112,0.381,0.166c0.146,0.058,0.283,0.104,0.41,0.148c0.434,0.146,0.787,0.255,1.068,0.347
		c0.279,0.092,0.504,0.19,0.672,0.313c0.105,0.08,0.195,0.168,0.27,0.267c0.075,0.1,0.137,0.199,0.188,0.305
		c0.049,0.104,0.086,0.192,0.11,0.269c0.025,0.075,0.064,0.198,0.119,0.372C12.752,19.083,12.78,19.324,12.758,19.526z
		 M17.35,18.458c0.143,0.521,0.113,0.937-0.096,1.235c-0.125,0.175-0.322,0.312-0.593,0.396c-0.271,0.086-0.606,0.157-1.015,0.199
		c-0.295,0.03-0.557,0.032-0.78,0.012c-0.224-0.021-0.438-0.08-0.646-0.18c-0.215-0.109-0.396-0.277-0.549-0.504
		c-0.15-0.224-0.264-0.476-0.342-0.756c-0.324-1.175-0.648-2.347-0.973-3.521c0.324,0.019,0.646,0.021,0.963,0.015
		c0.332,1.2,0.662,2.399,0.994,3.599c0.033,0.118,0.07,0.209,0.113,0.271c0.045,0.062,0.108,0.115,0.196,0.162
		c0.111,0.061,0.229,0.094,0.356,0.104c0.128,0.008,0.302,0.003,0.519-0.021c0.076-0.01,0.134-0.012,0.17-0.006
		c0.224-0.035,0.39-0.076,0.5-0.117c0.109-0.041,0.195-0.104,0.255-0.191c0.051-0.073,0.073-0.15,0.071-0.232
		c-0.006-0.083-0.03-0.212-0.078-0.385c-0.315-1.141-0.631-2.28-0.944-3.422c0.301-0.059,0.598-0.127,0.895-0.204
		C16.696,16.094,17.022,17.277,17.35,18.458z M21.68,16.75c0.011,0.039,0.021,0.079,0.033,0.119
		c0.133,0.484,0.123,0.888-0.031,1.206c-0.143,0.256-0.405,0.487-0.789,0.688c-0.135,0.069-0.301,0.15-0.5,0.24
		c-0.198,0.09-0.315,0.141-0.35,0.154c-0.615,0.243-1.088,0.254-1.408,0.065c-0.149-0.09-0.279-0.225-0.387-0.401
		c-0.107-0.177-0.199-0.379-0.273-0.604c-0.075-0.229-0.172-0.55-0.287-0.966c-0.116-0.426-0.2-0.749-0.25-0.97
		c-0.049-0.222-0.075-0.429-0.077-0.621c-0.002-0.191,0.028-0.381,0.094-0.566c0.067-0.175,0.177-0.326,0.328-0.461
		s0.319-0.248,0.506-0.345s0.39-0.188,0.606-0.276c0.246-0.102,0.449-0.182,0.607-0.236c0.158-0.057,0.316-0.096,0.477-0.116
		c0.158-0.021,0.3-0.005,0.425,0.047c0.135,0.061,0.248,0.157,0.342,0.295c0.095,0.139,0.168,0.278,0.222,0.428
		c0.055,0.146,0.106,0.317,0.161,0.516c-0.276,0.13-0.557,0.257-0.834,0.38c-0.028-0.103-0.057-0.206-0.086-0.31
		c-0.055-0.201-0.139-0.326-0.25-0.381c-0.116-0.059-0.375,0.004-0.778,0.17c-0.041,0.017-0.082,0.032-0.125,0.051
		c-0.226,0.091-0.394,0.172-0.502,0.246c-0.107,0.074-0.188,0.162-0.236,0.263c-0.086,0.179-0.072,0.475,0.043,0.895
		c0.119,0.432,0.238,0.862,0.357,1.295c0.137,0.496,0.295,0.772,0.475,0.83c0.111,0.045,0.227,0.055,0.352,0.026
		c0.125-0.027,0.293-0.081,0.502-0.166c0.254-0.104,0.422-0.18,0.506-0.225c0.144-0.101,0.24-0.207,0.295-0.32
		c0.023-0.057,0.037-0.116,0.039-0.184c0.002-0.066,0-0.131-0.01-0.193c-0.012-0.062-0.027-0.143-0.049-0.236
		c-0.023-0.095-0.043-0.183-0.064-0.263c0.279-0.124,0.558-0.252,0.834-0.381C21.623,16.542,21.651,16.645,21.68,16.75z
		 M25.735,14.813c0.012,0.039,0.022,0.078,0.032,0.119c0.136,0.482,0.123,0.884-0.03,1.203c-0.144,0.256-0.404,0.487-0.783,0.702
		c-0.133,0.076-0.297,0.166-0.491,0.271c-0.197,0.102-0.312,0.162-0.343,0.181c-0.603,0.293-1.06,0.362-1.371,0.208
		c-0.146-0.071-0.271-0.192-0.377-0.362c-0.104-0.17-0.192-0.367-0.271-0.593c-0.073-0.226-0.169-0.546-0.285-0.962
		c-0.117-0.426-0.201-0.749-0.252-0.972c-0.049-0.223-0.076-0.434-0.08-0.635c-0.004-0.199,0.025-0.399,0.086-0.604
		c0.063-0.188,0.166-0.357,0.313-0.514c0.145-0.155,0.309-0.29,0.489-0.404c0.181-0.116,0.377-0.226,0.593-0.33
		c0.241-0.115,0.442-0.207,0.6-0.271c0.156-0.064,0.312-0.106,0.471-0.131c0.158-0.021,0.299-0.009,0.424,0.045
		c0.137,0.059,0.248,0.155,0.344,0.295c0.094,0.137,0.168,0.276,0.221,0.427c0.056,0.147,0.109,0.319,0.162,0.517
		c-0.276,0.125-0.557,0.255-0.832,0.386c-0.026-0.104-0.059-0.207-0.084-0.311c-0.059-0.2-0.141-0.325-0.25-0.377
		c-0.114-0.054-0.373,0.016-0.771,0.206c-0.039,0.021-0.082,0.039-0.121,0.062c-0.223,0.105-0.387,0.203-0.489,0.289
		c-0.105,0.086-0.183,0.184-0.229,0.291c-0.084,0.19-0.065,0.494,0.047,0.913c0.119,0.433,0.24,0.863,0.358,1.296
		c0.138,0.495,0.294,0.766,0.468,0.808c0.106,0.034,0.221,0.032,0.344-0.005c0.121-0.037,0.283-0.106,0.49-0.207
		c0.248-0.12,0.414-0.204,0.496-0.254c0.141-0.105,0.237-0.217,0.293-0.334c0.022-0.059,0.034-0.119,0.037-0.188
		c0.004-0.064,0-0.132-0.011-0.193c-0.01-0.062-0.026-0.143-0.049-0.235c-0.022-0.097-0.043-0.183-0.063-0.265
		c0.276-0.132,0.555-0.26,0.832-0.385C25.68,14.604,25.708,14.708,25.735,14.813z M29.766,14.936
		c-1.063,0.279-2.092,0.668-3.108,1.105c-0.457-1.65-0.912-3.303-1.369-4.954c1.015-0.438,2.041-0.823,3.099-1.104
		c0.073,0.271,0.147,0.542,0.225,0.813c-0.762,0.201-1.508,0.459-2.244,0.752c0.113,0.411,0.23,0.825,0.344,1.239
		c0.697-0.276,1.404-0.521,2.125-0.719c0.072,0.257,0.145,0.515,0.217,0.771c-0.725,0.195-1.43,0.44-2.127,0.719
		c0.119,0.438,0.24,0.877,0.361,1.313c0.74-0.293,1.49-0.552,2.256-0.754C29.616,14.393,29.689,14.664,29.766,14.936z
		 M33.881,13.803c-0.021,0.207-0.091,0.357-0.212,0.463c-0.188,0.162-0.646,0.227-1.346,0.273c-0.115,0.01-0.231,0.02-0.349,0.03
		c-0.311,0.029-0.576,0.051-0.809,0.051c-0.229,0.002-0.438-0.05-0.629-0.155c-0.141-0.078-0.254-0.178-0.342-0.299
		c-0.086-0.117-0.156-0.248-0.205-0.384c-0.051-0.137-0.105-0.315-0.168-0.541c0.297-0.067,0.596-0.127,0.896-0.177
		c0.016,0.057,0.024,0.104,0.026,0.141c0.049,0.151,0.095,0.268,0.133,0.344c0.039,0.074,0.095,0.135,0.162,0.178
		c0.076,0.048,0.168,0.074,0.274,0.08c0.107,0.008,0.255,0.002,0.443-0.008c0.092-0.011,0.156-0.012,0.205-0.006
		c0.23-0.029,0.406-0.053,0.523-0.07c0.115-0.021,0.209-0.055,0.277-0.104c0.121-0.092,0.137-0.299,0.047-0.622
		c-0.063-0.229-0.154-0.393-0.273-0.489c-0.043-0.031-0.094-0.058-0.15-0.074c-0.061-0.021-0.112-0.032-0.168-0.037
		c-0.059-0.008-0.125-0.012-0.207-0.012c-0.08,0-0.172,0-0.274,0c-0.175,0.006-0.339,0.014-0.492,0.021
		c-0.151,0.009-0.299,0.017-0.44,0.019c-0.14,0.002-0.281-0.008-0.427-0.026c-0.145-0.021-0.27-0.058-0.377-0.11
		c-0.301-0.143-0.528-0.472-0.692-1c-0.152-0.554-0.144-0.971,0.033-1.237c0.188-0.258,0.629-0.455,1.338-0.521
		c0.43-0.039,0.744-0.037,0.938-0.021c0.314,0.033,0.572,0.129,0.77,0.269c0.205,0.142,0.355,0.313,0.459,0.507
		c0.103,0.195,0.191,0.439,0.271,0.73c-0.326-0.024-0.646-0.037-0.969-0.035c-0.018-0.065-0.035-0.133-0.055-0.198
		c-0.052-0.187-0.119-0.312-0.203-0.382c-0.103-0.088-0.313-0.131-0.627-0.111c-0.127,0.008-0.254,0.021-0.381,0.03
		c-0.367,0.034-0.591,0.114-0.673,0.219c-0.045,0.053-0.067,0.117-0.073,0.194c-0.004,0.076,0.014,0.188,0.055,0.332
		c0.053,0.162,0.1,0.279,0.139,0.35c0.039,0.071,0.105,0.12,0.191,0.15c0.07,0.024,0.154,0.041,0.252,0.048s0.209,0.008,0.338,0.003
		c0.129-0.003,0.25-0.006,0.367-0.006c0.391-0.006,0.721,0.021,0.988,0.061c0.266,0.038,0.481,0.118,0.647,0.229
		c0.104,0.07,0.188,0.154,0.267,0.252c0.071,0.095,0.135,0.193,0.184,0.298c0.049,0.105,0.086,0.192,0.111,0.268
		c0.024,0.074,0.063,0.197,0.118,0.371C33.874,13.354,33.901,13.596,33.881,13.803z M38.715,15.18
		c-0.031,0.17-0.117,0.268-0.257,0.299c-0.219,0.053-0.735-0.109-1.521-0.364c-0.133-0.043-0.262-0.083-0.391-0.12
		c-0.347-0.1-0.644-0.188-0.896-0.272c-0.254-0.085-0.482-0.209-0.689-0.375c-0.15-0.121-0.271-0.25-0.365-0.391
		c-0.094-0.139-0.164-0.277-0.219-0.419c-0.051-0.141-0.105-0.321-0.168-0.547c0.326,0.041,0.658,0.096,0.992,0.167
		c0.018,0.059,0.023,0.104,0.023,0.136c0.051,0.154,0.098,0.273,0.139,0.356c0.043,0.084,0.102,0.155,0.174,0.221
		c0.084,0.073,0.186,0.133,0.305,0.182c0.117,0.049,0.281,0.104,0.492,0.172c0.102,0.027,0.178,0.058,0.229,0.082
		c0.263,0.069,0.459,0.127,0.593,0.162c0.131,0.032,0.235,0.047,0.313,0.032c0.142-0.024,0.166-0.196,0.074-0.521
		c-0.062-0.229-0.16-0.414-0.293-0.555c-0.047-0.048-0.104-0.093-0.168-0.135c-0.062-0.043-0.127-0.079-0.188-0.107
		c-0.063-0.028-0.139-0.063-0.23-0.1c-0.091-0.035-0.193-0.074-0.309-0.117c-0.195-0.07-0.379-0.133-0.549-0.188
		c-0.172-0.056-0.336-0.105-0.49-0.16c-0.156-0.054-0.313-0.116-0.473-0.188c-0.158-0.071-0.295-0.15-0.412-0.237
		c-0.326-0.236-0.568-0.614-0.734-1.148c-0.152-0.554-0.131-0.928,0.072-1.104c0.215-0.161,0.703-0.182,1.494,0.054
		c0.479,0.146,0.834,0.287,1.051,0.388c0.354,0.173,0.641,0.375,0.857,0.591c0.227,0.219,0.395,0.44,0.502,0.659
		c0.106,0.218,0.2,0.474,0.28,0.767c-0.369-0.183-0.731-0.344-1.092-0.487c-0.019-0.064-0.037-0.133-0.056-0.198
		c-0.051-0.188-0.123-0.327-0.217-0.428c-0.111-0.121-0.348-0.255-0.699-0.373c-0.145-0.048-0.285-0.093-0.426-0.137
		c-0.412-0.12-0.658-0.135-0.756-0.074c-0.051,0.029-0.078,0.078-0.086,0.146c-0.008,0.065,0.01,0.172,0.049,0.315
		c0.055,0.166,0.104,0.289,0.146,0.366s0.11,0.147,0.206,0.209c0.078,0.05,0.173,0.097,0.279,0.143
		c0.105,0.045,0.23,0.09,0.375,0.139c0.144,0.051,0.277,0.1,0.408,0.146c0.438,0.162,0.809,0.333,1.105,0.49
		c0.299,0.155,0.543,0.329,0.725,0.503c0.115,0.111,0.215,0.229,0.291,0.348c0.082,0.118,0.146,0.233,0.199,0.349
		c0.055,0.113,0.092,0.209,0.117,0.287c0.025,0.076,0.066,0.201,0.121,0.379C38.723,14.791,38.745,15.012,38.715,15.18z M0,6.121
		h1.666l9.164,33.167H9.164L0,6.121z"/>
</g>
<g>
</g>
<g>
</g>
<g>
</g>
<g>
</g>
<g>
</g>
<g>
</g>
<g>
</g>
<g>
</g>
<g>
</g>
<g>
</g>
<g>
</g>
<g>
</g>
<g>
</g>
<g>
</g>
<g>
</g>
</svg>
